<svg width="320" height="320" viewBox="0 0 320 320" fill="none" xmlns="http://www.w3.org/2000/svg">
  <rect width="320" height="320" rx="32" fill="#FFF6EA"/>
  <rect x="22" y="24" width="276" height="272" rx="26" fill="url(#paint0_linear)"/>
  <circle cx="224" cy="102" r="34" fill="#FFF1C9"/>
  <path d="M52 238C80.8 180.4 119.2 151.6 167.2 151.6C215.2 151.6 251.2 180.4 275.2 238" fill="#7E3A28"/>
  <path d="M106 120C118.8 95.2 138 82.8 163.6 82.8C189.2 82.8 210.4 95.6 227.2 121.2" stroke="#F2CA73" stroke-width="18" stroke-linecap="round"/>
  <circle cx="132" cy="170" r="10" fill="#FFF8EF"/>
  <circle cx="194" cy="170" r="10" fill="#FFF8EF"/>
  <path d="M140 208C148 214.933 156.8 218.4 166.4 218.4C176 218.4 185.333 214.933 194.4 208" stroke="#FFF8EF" stroke-width="8" stroke-linecap="round"/>
  <defs>
    <linearGradient id="paint0_linear" x1="160" y1="24" x2="160" y2="296" gradientUnits="userSpaceOnUse">
      <stop stop-color="#FCD9A3"/>
      <stop offset="0.48" stop-color="#F79C79"/>
      <stop offset="1" stop-color="#9A4B32"/>
    </linearGradient>
  </defs>
</svg>
